<svg width="64" height="64" viewBox="0 0 64 64" fill="none" xmlns="http://www.w3.org/2000/svg">
<path opacity="0.9" d="M34.6534 8C21.3867 8 10.6667 18.7467 10.6667 32H2.66669L13.0534 42.3867L13.24 42.7733L24 32H16C16 21.6933 24.36 13.3333 34.6667 13.3333C44.9734 13.3333 53.3334 21.6933 53.3334 32C53.3334 42.3067 44.9734 50.6667 34.6667 50.6667C29.5067 50.6667 24.8534 48.56 21.48 45.1867L17.7067 48.96C22.04 53.3067 28.0267 56 34.6534 56C47.92 56 58.6667 45.2533 58.6667 32C58.6667 18.7467 47.92 8 34.6534 8ZM32 21.3333V34.6667L43.4134 41.44L45.3334 38.2L36 32.6667V21.3333H32Z" fill="#707070"/>
</svg>
