<svg width="256" height="256" viewBox="0 0 256 256" fill="none" xmlns="http://www.w3.org/2000/svg">
<path d="M186.182 93.9256H23.2727V213.333C23.2727 219.76 28.4827 224.97 34.9091 224.97H81.4545H110.62C125.55 243.858 148.656 256 174.545 256C219.459 256 256 219.459 256 174.545C256 133.582 225.603 99.5894 186.182 93.9256ZM174.545 232.727C142.464 232.727 116.364 206.627 116.364 174.545C116.364 142.464 142.464 116.364 174.545 116.364C206.627 116.364 232.727 142.464 232.727 174.545C232.727 206.627 206.627 232.727 174.545 232.727Z" fill="#333333"/>
<path d="M186.182 69.8182H197.818C204.245 69.8182 209.455 64.6082 209.455 58.1818C209.455 51.7554 204.245 46.5455 197.818 46.5455H174.545H162.909V11.6364C162.909 5.20999 157.699 0 151.273 0H58.1818C51.7554 0 46.5455 5.20999 46.5455 11.6364V46.5455H34.9091H11.6364C5.20999 46.5455 0 51.7554 0 58.1818C0 64.6082 5.20999 69.8182 11.6364 69.8182H23.2727H186.182ZM69.8182 23.2727H139.636V46.5455H128H81.4545H69.8182V23.2727Z" fill="#333333"/>
<path d="M199.229 149.862C194.686 145.317 187.318 145.317 182.773 149.862L174.545 158.089L166.318 149.862C161.774 145.317 154.406 145.317 149.862 149.862C145.317 154.406 145.317 161.773 149.862 166.318L158.089 174.545L149.862 182.773C145.317 187.318 145.317 194.685 149.862 199.229C152.134 201.501 155.112 202.638 158.089 202.638C161.067 202.638 164.046 201.501 166.318 199.229L174.545 191.002L182.773 199.229C185.045 201.501 188.023 202.638 191.002 202.638C193.98 202.638 196.958 201.501 199.229 199.229C203.774 194.685 203.774 187.318 199.229 182.773L191.002 174.545L199.229 166.318C203.774 161.773 203.774 154.406 199.229 149.862Z" fill="#333333"/>
</svg>
