<svg width="257" height="257" viewBox="0 0 257 257" fill="none" xmlns="http://www.w3.org/2000/svg">
<path d="M254.05 215.355L166.583 127.6L254.25 40.9788C257.85 37.3806 257.85 31.517 254.25 27.9189L229.317 2.86529C227.583 1.13286 225.25 0.200012 222.783 0.200012C220.317 0.200012 217.983 1.19949 216.25 2.86529L128.983 89.2203L41.5833 2.93193C39.85 1.1995 37.5167 0.266648 35.05 0.266648C32.5833 0.266648 30.25 1.26613 28.5167 2.93193L3.65001 27.9855C0.0500122 31.5837 0.0500122 37.4473 3.65001 41.0454L91.3167 127.667L3.91668 215.355C2.18335 217.087 1.18335 219.419 1.18335 221.885C1.18335 224.35 2.11668 226.682 3.91668 228.414L28.85 253.468C30.65 255.267 32.9833 256.2 35.3833 256.2C37.7167 256.2 40.1167 255.334 41.9167 253.468L128.983 166.047L216.117 253.401C217.917 255.201 220.25 256.133 222.65 256.133C224.983 256.133 227.383 255.267 229.183 253.401L254.117 228.348C255.85 226.615 256.85 224.283 256.85 221.818C256.783 219.419 255.783 217.087 254.05 215.355Z" fill="#333333"/>
</svg>
